<svg id="Capa_1" enable-background="new 0 0 472.792 472.792" height="512" viewBox="0 0 472.792 472.792" width="512" xmlns="http://www.w3.org/2000/svg"><g><path d="m469.426 233.03c0 128.7-104.33 233.03-233.03 233.03-7.01 0-13.94-.31-20.79-.91-118.96-10.52-212.24-110.43-212.24-232.12s93.28-221.6 212.24-232.12c6.85-.6 13.78-.91 20.79-.91 128.7 0 233.03 104.33 233.03 233.03z" fill="#c8effe"/><ellipse cx="215.606" cy="233.03" fill="#eaf6ff" rx="212.24" ry="232.12"/><path d="m381.966 233.03c0 80.39-65.17 145.57-145.57 145.57-7.06 0-14-.5-20.79-1.47-70.55-10.09-124.78-70.77-124.78-144.1 0-73.34 54.23-134.01 124.78-144.1 6.79-.97 13.73-1.47 20.79-1.47 80.4 0 145.57 65.17 145.57 145.57z" fill="#c8effe"/><ellipse cx="215.606" cy="233.03" fill="#eaf6ff" rx="124.78" ry="144.1"/><path d="m238.336 80.78c4.55-41.88-9.92-58.49-43.07-71.72-19.45-7.76-40.69-10.22-61.31-7.34-5.81.81-11.57 2.03-17.22 3.69-63.8 18.78-99.11 49.52-81.15 116.09 8.26 30.64-6.17 68.04 16.21 97.82 9.14 12.16 20.3 18.56 32.78 21.24 28.19 6.05 63.14-6.81 96.94-14.95 1.23-.3 2.48-.57 3.75-.81h.03c3-.6 6.1-1.08 9.27-1.48 9.79-1.23 20.26-1.77 30.41-2.95 23.39-2.71 45.14-8.81 53.4-34.61 12.46-38.91-43.47-73.43-40.04-104.98z" fill="#fedba6"/><path d="m204.786 80.78c4.55-41.88-9.92-58.49-43.07-71.72-8.95-3.57-18.28-6.02-27.76-7.34-5.81.81-11.57 2.03-17.22 3.69-63.8 18.78-99.11 49.52-81.15 116.09 8.26 30.64-6.17 68.04 16.21 97.82 9.14 12.16 20.3 18.56 32.78 21.24 28.19 6.05 63.14-6.81 96.94-14.95 1.23-.3 2.48-.57 3.75-.81h.03c3-.6 6.1-1.08 9.27-1.48 21.02-4.23 43.07-15.12 50.26-37.56 12.46-38.91-43.47-73.43-40.04-104.98z" fill="#ffefd2"/><path d="m155.466 162.734c-22.474 6.615-46.064-6.251-52.68-28.725-6.615-22.486 6.251-46.064 28.725-52.68 22.486-6.615 46.076 6.251 52.68 28.725 6.616 22.486-6.239 46.065-28.725 52.68z" fill="#fee903"/><path d="m373.196 31.29c-46.35 0-83.92 37.57-83.92 83.92 0 46.34 37.57 83.92 83.92 83.92 46.34 0 83.92-37.58 83.92-83.92 0-46.35-37.58-83.92-83.92-83.92z" fill="#d7d0d6"/><path d="m424.916 115.21c0 28.55-23.17 51.72-51.72 51.72-6.34 0-12.42-1.15-18.04-3.25-19.68-7.31-33.68-26.26-33.68-48.47 0-22.23 14-41.17 33.68-48.49 5.62-2.09 11.7-3.24 18.04-3.24 28.55 0 51.72 23.16 51.72 51.73z" fill="#fb2b3a"/><path d="m388.854 115.21c0 22.208-14.017 41.162-33.697 48.473-19.679-7.311-33.686-26.265-33.686-48.473 0-22.23 14.006-41.173 33.686-48.495 19.68 7.323 33.697 26.266 33.697 48.495z" fill="#fd4755"/><g><path d="m118.556 343.9-31.933 20.481-13.443-13.096c-4.703-4.581-3.915-12.347 1.611-15.892l21.125-13.549c17.14-10.994 30.885-26.528 39.736-44.856 10.036-21.29 27.104-35.834 47.45-46.808 17.466-9.92 31.897-24.433 41.719-41.969l7.967-14.229c3.277-5.852 11.213-7.003 16.017-2.323l13.118 12.779-14.462 25.829c-9.822 17.537-24.245 32.041-41.719 41.969-20.344 10.973-37.423 25.511-47.458 46.8-8.851 18.344-22.596 33.862-39.728 44.864z" fill="#bb5d4c"/><path d="m182.876 371.222c-5.764 5.917-12.193 11.187-19.187 15.707l-25.607 16.526c-3.995 2.579-9.242 2.054-12.649-1.264l-16.827-16.393 31.933-20.481c17.132-11.002 30.877-26.52 39.736-44.857 10.026-21.296 27.106-35.835 47.451-46.808 17.482-9.921 31.897-24.433 41.719-41.969l14.462-25.829 17.062 16.621c3.298 3.213 4.035 8.236 1.798 12.26l-10.213 18.38c-9.767 17.575-24.158 32.141-41.607 42.124-20.316 11.036-37.38 25.25-47.563 46.575-5.207 10.917-12.154 20.833-20.508 29.408z" fill="#a44f3e"/><path d="m140.54 365.317-31.933 20.481-21.984-21.416 31.933-20.481c17.132-11.002 30.877-26.52 39.728-44.864 10.035-21.289 27.115-35.827 47.458-46.8 17.474-9.928 31.897-24.433 41.719-41.969l14.462-25.829 21.984 21.416-14.462 25.829c-9.822 17.537-24.237 32.049-41.719 41.969-20.345 10.973-37.425 25.512-47.451 46.808-8.858 18.335-22.603 33.854-39.735 44.856z" fill="#f1b0a2"/></g><g><path d="m245.299 411.608-31.933 20.481-13.443-13.096c-4.703-4.581-3.915-12.347 1.611-15.892l21.125-13.549c17.14-10.994 30.885-26.528 39.736-44.856 10.036-21.29 27.104-35.834 47.45-46.808 17.466-9.92 31.897-24.433 41.719-41.969l7.967-14.229c3.277-5.852 11.213-7.003 16.017-2.323l13.118 12.779-14.462 25.829c-9.822 17.537-24.245 32.041-41.719 41.969-20.344 10.973-37.423 25.511-47.458 46.8-8.85 18.344-22.596 33.862-39.728 44.864z" fill="#bb5d4c"/><path d="m309.62 438.929c-5.764 5.917-12.193 11.187-19.187 15.707l-25.607 16.526c-3.995 2.579-9.242 2.054-12.649-1.264l-16.827-16.393 31.933-20.481c17.132-11.002 30.878-26.52 39.736-44.857 10.026-21.296 27.106-35.835 47.451-46.808 17.482-9.921 31.897-24.433 41.719-41.969l14.462-25.829 17.062 16.621c3.298 3.213 4.035 8.236 1.798 12.26l-10.213 18.38c-9.767 17.575-24.158 32.141-41.607 42.124-20.316 11.036-37.38 25.25-47.563 46.575-5.208 10.918-12.154 20.833-20.508 29.408z" fill="#a44f3e"/><path d="m267.283 433.024-31.933 20.481-21.984-21.416 31.933-20.481c17.132-11.002 30.878-26.52 39.728-44.864 10.035-21.289 27.115-35.827 47.458-46.8 17.474-9.928 31.897-24.432 41.719-41.969l14.462-25.829 21.984 21.416-14.462 25.829c-9.822 17.537-24.237 32.049-41.719 41.969-20.345 10.973-37.425 25.512-47.451 46.808-8.857 18.336-22.603 33.854-39.735 44.856z" fill="#f1b0a2"/></g></g></svg>